<svg height="512pt" viewBox="0 0 512.03062 512" width="512pt" xmlns="http://www.w3.org/2000/svg"><path d="m255.941406 504.015625c-129.363281-.03125-236.972656-99.496094-247.167968-228.457031-10.195313-128.960938 80.449218-244.097656 208.203124-264.453125 127.75-20.355469 249.691407 60.902343 280.085938 186.644531 3.199219 14.214844-.257812 29.109375-9.394531 40.457031-9.136719 11.34375-22.953125 17.902344-37.519531 17.808594h-174.207032c-15.464844 0-28 12.535156-28 28s12.535156 28 28 28h24c15.464844 0 28 12.535156 28 28v108h-72zm0 0" fill="#a6e7ff"/><path d="m216.902344 104.015625h-156.609375c-69.742188 89.296875-69.855469 214.574219-.28125 304h59.929687c17.671875 0 32-14.328125 32-32s-14.328125-32-32-32h-40c-13.253906 0-24-10.746094-24-24s10.746094-24 24-24h80c22.089844 0 40-17.910156 40-40s-17.910156-40-40-40h-32c-13.253906 0-24-10.746094-24-24s10.746094-24 24-24h88c17.671875 0 32-14.328125 32-32v-.960937c0-17.140626-13.898437-31.039063-31.039062-31.039063zm0 0" fill="#e2fc85"/><path d="m402.554688 56.015625h-34.613282c-13.253906 0-24 10.746094-24 24s10.746094 24 24 24h32c8.835938 0 16 7.164063 16 16s-7.164062 16-16 16h-64c-13.253906 0-24 10.746094-24 24s10.746094 24 24 24h157.335938c-15.621094-51.347656-47.449219-96.253906-90.722656-128zm0 0" fill="#e2fc85"/><path d="m431.941406 360.015625h-176c-35.523437-.035156-65.765625 25.839844-71.21875 60.941406-5.457031 35.101563 15.5 68.9375 49.359375 79.683594s70.496094-4.804687 86.28125-36.625h47.152344c15.789063 31.820313 52.425781 47.371094 86.285156 36.625 33.855469-10.746094 54.816407-44.582031 49.359375-79.683594-5.457031-35.101562-35.695312-60.976562-71.21875-60.941406zm0 0" fill="#ff8a65"/><g fill="#fff"><path d="m223.941406 424.015625h64v16h-64zm0 0"/><path d="m247.941406 400.015625h16v64h-16zm0 0"/><path d="m455.941406 424.015625h16v16h-16zm0 0"/><path d="m391.941406 424.015625h16v16h-16zm0 0"/><path d="m423.941406 392.015625h16v16h-16zm0 0"/><path d="m423.941406 456.015625h16v16h-16zm0 0"/></g><path d="m463.941406 288.261719h16v47.753906h-16zm0 0"/><path d="m431.941406 304.261719h16v31.753906h-16zm0 0"/><path d="m399.941406 320.261719h16v15.753906h-16zm0 0"/><path d="m327.941406 424.015625h32v16h-32zm0 0"/><path d="m431.941406 352.015625h-96v-12c-.023437-19.875-16.128906-35.976563-36-36h-24c-11.046875 0-20-8.953125-20-20s8.953125-20 20-20h174.207032c17.3125.042969 33.675781-7.90625 44.34375-21.542969 10.453124-13.105468 14.269531-30.296875 10.34375-46.59375-31.367188-129.800781-157.242188-213.6875-289.117188-192.675781s-225.445312 139.863281-214.921875 272.984375c10.523437 133.125 121.605469 235.796875 255.144531 235.828125 28.582032.078125 55.007813-15.195313 69.207032-40h37.601562c19.417969 33.632813 60.183594 48.460937 96.671875 35.164063 36.488281-13.296876 58.15625-50.875 51.382813-89.117188-6.773438-38.238281-40.027344-66.089844-78.863282-66.046875zm-32-288.207031c37.984375 28.386718 66.648438 67.453125 82.328125 112.207031h-146.328125c-8.835937 0-16-7.164063-16-16s7.164063-16 16-16h64c13.253906 0 24-10.746094 24-24s-10.746094-24-24-24h-32c-8.835937 0-16-7.164063-16-16s7.164063-16 16-16h32zm-336 336.207031c-64.054687-85.339844-63.9804685-202.742187.175782-288h152.800781c12.710937.023437 23.007812 10.328125 23.023437 23.039063v.960937c0 13.253906-10.746094 24-24 24h-88c-17.675781 0-32 14.328125-32 32s14.324219 32 32 32h32c17.671875 0 32 14.328125 32 32s-14.328125 32-32 32h-80c-17.675781 0-32 14.328125-32 32s14.324219 32 32 32h40c13.253906 0 24 10.746094 24 24s-10.746094 24-24 24zm16.542969 19.71875c-1.136719-1.214844-2.191406-2.488281-3.296875-3.71875h42.753906c22.089844 0 40-17.910156 40-40s-17.910156-40-40-40h-40c-8.835937 0-16-7.164063-16-16s7.164063-16 16-16h80c26.507813 0 48-21.492187 48-48 0-26.511719-21.492187-48-48-48h-32c-8.835937 0-16-7.164063-16-16s7.164063-16 16-16h88c22.078125-.027344 39.972656-17.917969 40-40v-.960937c-.023437-21.550782-17.488281-39.015626-39.039062-39.039063h-139.65625c75.675781-84.636719 200.308594-104.667969 298.695312-48h-8c-17.675781 0-32 14.328125-32 32s14.324219 32 32 32h32c4.417969 0 8 3.582031 8 8s-3.582031 8-8 8h-64c-17.675781 0-32 14.328125-32 32s14.324219 32 32 32h151.320313c.695312 2.519531 1.398437 5.039063 2.015625 7.609375 2.765625 11.527344.050781 23.683594-7.351563 32.941406-7.644531 9.773438-19.371093 15.476563-31.777343 15.449219h-174.207032c-19.882812 0-36 16.117187-36 36s16.117188 36 36 36h24c11.042969 0 20 8.953125 20 20v12h-64c-32.570312-.03125-61.902344 19.703125-74.140625 49.886719-12.238281 30.179687-4.941406 64.769531 18.453125 87.433594-45.890625-10.96875-87.546875-35.167969-119.800781-69.601563zm351.457031 76.28125c-24.316406.058594-46.539062-13.746094-57.265625-35.566406l-2.214843-4.433594h-57.039063l-2.21875 4.433594c-14.027344 28.289062-46.59375 42.121093-76.695313 32.566406-30.097656-9.550781-48.730468-39.628906-43.882812-70.832031 4.851562-31.203125 31.738281-54.203125 63.316406-54.167969h176c35.34375 0 64 28.652344 64 64s-28.65625 64-64 64zm0 0"/></svg>